<svg xmlns="http://www.w3.org/2000/svg" xmlns:xlink="http://www.w3.org/1999/xlink" id="body_1" width="18" height="14">
<g transform="matrix(0.02734375 0 0 0.02734375 1.1249999 -0)">
    <path d="M381.2 150.3L524.9 171.5C 536.8 173.2 546.8 181.6 550.6 193.1C 554.4 204.7 551.3 217.3 542.7 225.9L542.7 225.9L438.5 328.1L463.1 474.7C 465.1 486.7 460.2 498.9 450.2 506C 440.3 513.1 427.2 514 416.5 508.3L416.5 508.3L288.1 439.8L159.8 508.3C 149 514 135.9 513.1 126 506C 116.1 498.9 111.1 486.7 113.2 474.7L113.2 474.7L137.8 328.1L33.58 225.9C 24.97 217.3 21.91 204.7 25.69 193.1C 29.46 181.6 39.43 173.2 51.42 171.5L51.42 171.5L195 150.3L259.4 17.97C 264.7 6.954 275.9 -0.0391 288.1 -0.0391C 300.4 -0.0391 311.6 6.954 316.9 17.97L316.9 17.97L381.2 150.3z" stroke="none" fill="#000000" fill-rule="nonzero" />
</g>
</svg>